<svg xmlns="http://www.w3.org/2000/svg" width="38.902" height="35.617" viewBox="0 0 38.902 35.617">
  <path id="Icon_metro-cart" data-name="Icon metro-cart" d="M17.159,35.911a3.648,3.648,0,1,1-3.647-3.562A3.605,3.605,0,0,1,17.159,35.911Zm24.313,0a3.648,3.648,0,1,1-3.647-3.562A3.605,3.605,0,0,1,41.472,35.911Zm0-15.434V6.231H12.3A2.4,2.4,0,0,0,9.865,3.856H2.571V6.231H7.433L9.26,21.518a4.7,4.7,0,0,0-1.826,3.708A4.807,4.807,0,0,0,12.3,29.975H41.472V27.6H12.3a2.4,2.4,0,0,1-2.431-2.374c0-.008,0-.016,0-.024l31.607-4.725Z" transform="translate(-2.571 -3.856)" fill="#747474"/>
</svg>
